/* XPM */
static const char * main_xpm[] = {
"64 64 150 2",
"  	c None",
". 	c #FFFFFF",
"+ 	c #D8D8D8",
"@ 	c #000000",
"# 	c #040404",
"$ 	c #1D1D1D",
"% 	c #636363",
"& 	c #E2E2E2",
"* 	c #BEBEBE",
"= 	c #A0A0A0",
"- 	c #595959",
"; 	c #DBDBDB",
"> 	c #6D6D6D",
", 	c #282828",
"' 	c #070707",
") 	c #050505",
"! 	c #191919",
"~ 	c #474747",
"{ 	c #949494",
"] 	c #F3F3F3",
"^ 	c #B3B3B3",
"/ 	c #777777",
"( 	c #939393",
"_ 	c #A2A2A2",
": 	c #111111",
"< 	c #161616",
"[ 	c #020202",
"} 	c #1E1E1E",
"| 	c #F4F4F4",
"1 	c #8C8C8C",
"2 	c #171717",
"3 	c #121212",
"4 	c #090909",
"5 	c #A3A3A3",
"6 	c #909090",
"7 	c #060606",
"8 	c #0B0B0B",
"9 	c #D5D5D5",
"0 	c #7C7C7C",
"a 	c #AEAEAE",
"b 	c #5C5C5C",
"c 	c #CBCBCB",
"d 	c #CCCCCC",
"e 	c #E8E8E8",
"f 	c #B1B1B1",
"g 	c #ACACAC",
"h 	c #7E7E7E",
"i 	c #CFCFCF",
"j 	c #8E8E8E",
"k 	c #252525",
"l 	c #BBBBBB",
"m 	c #FEFEFE",
"n 	c #D2D2D2",
"o 	c #4F4F4F",
"p 	c #151515",
"q 	c #444444",
"r 	c #E4E4E4",
"s 	c #080808",
"t 	c #FAFAFA",
"u 	c #373737",
"v 	c #010101",
"w 	c #F5F5F5",
"x 	c #575757",
"y 	c #797979",
"z 	c #B2B2B2",
"A 	c #D6D6D6",
"B 	c #1B1B1B",
"C 	c #C4C4C4",
"D 	c #0F0F0F",
"E 	c #EDEDED",
"F 	c #3A3A3A",
"G 	c #202020",
"H 	c #343434",
"I 	c #CECECE",
"J 	c #454545",
"K 	c #E5E5E5",
"L 	c #1C1C1C",
"M 	c #9A9A9A",
"N 	c #515151",
"O 	c #B7B7B7",
"P 	c #717171",
"Q 	c #4A4A4A",
"R 	c #F1F1F1",
"S 	c #838383",
"T 	c #434343",
"U 	c #F0F0F0",
"V 	c #404040",
"W 	c #9E9E9E",
"X 	c #888888",
"Y 	c #808080",
"Z 	c #A9A9A9",
"` 	c #969696",
" .	c #DEDEDE",
"..	c #4C4C4C",
"+.	c #101010",
"@.	c #181818",
"#.	c #ECECEC",
"$.	c #EBEBEB",
"%.	c #FBFBFB",
"&.	c #E6E6E6",
"*.	c #676767",
"=.	c #BFBFBF",
"-.	c #494949",
";.	c #E0E0E0",
">.	c #606060",
",.	c #141414",
"'.	c #585858",
").	c #ABABAB",
"!.	c #DFDFDF",
"~.	c #262626",
"{.	c #F8F8F8",
"].	c #030303",
"^.	c #1A1A1A",
"/.	c #323232",
"(.	c #2B2B2B",
"_.	c #0A0A0A",
":.	c #F2F2F2",
"<.	c #4E4E4E",
"[.	c #F9F9F9",
"}.	c #B9B9B9",
"|.	c #656565",
"1.	c #303030",
"2.	c #8B8B8B",
"3.	c #E7E7E7",
"4.	c #383838",
"5.	c #3E3E3E",
"6.	c #525252",
"7.	c #AAAAAA",
"8.	c #828282",
"9.	c #2F2F2F",
"0.	c #A1A1A1",
"a.	c #D0D0D0",
"b.	c #696969",
"c.	c #DADADA",
"d.	c #6E6E6E",
"e.	c #0D0D0D",
"f.	c #B6B6B6",
"g.	c #989898",
"h.	c #8A8A8A",
"i.	c #545454",
"j.	c #DDDDDD",
"k.	c #A4A4A4",
"l.	c #1F1F1F",
"m.	c #666666",
"n.	c #B4B4B4",
"o.	c #A5A5A5",
"p.	c #3C3C3C",
"q.	c #0E0E0E",
"r.	c #131313",
"s.	c #464646",
". . . . . . . . . . . . . . . . . . . . . . . . . . . . . . . . . . . . . . . . . . . . . . . . . . . . . . . . . . . . . . . . ",
". . . . . . . . . . . . . . . . . . . . . . . . . . . . . . . . . . . . . . . . . . . . . . . . . . . . . . . . . . . . . . . . ",
". . . . . . . . . . . . . . . . . . . . . . . . . . . . . . . . . . . . . . . . . . . . . . . . . . . . . . . . . . . . . . . . ",
". . . . . . . . . . . . . . . . . . . . . . . . . . . . . . . . . . . . . . . . . . . . . . . . . . . . . . . . . . . . . . . . ",
". . . . . . . . . . . . . . . . . . . . . . . . . . . . . . . . . . . . . . . . . . . . . . . . . . . . . . . . . . . . . . . . ",
". . . . . . . . . . . . . . . . . . . . . . . . . . . . . . . . . . . . . . . . . . . . . . . . . . . . . . . . . . . . . . . . ",
". . . . . . . . . . . . . . . . . . . . . . . . . . . . . . . . . . . . . . . . . . . . . . . . . . . . . . . . . . . . . . . . ",
". . . . . . . . . . . . . . . . . . . . . . . . . . . . . . . . . . . . . . . . . . . . . . . . . . . . . . . . . . . . . . . . ",
". . . . . . . . . . . . . . . . . . . . . . . . . . . . . . . . . . . . . . . . . . . . . . . . . . . . . . . . . . . . . . . . ",
". . . . . . . . . . . . . . . . . . . . . . . . . . . . . . . . . . . . . . . . . . . . . . . . . . . . . . . . . . . . . . . . ",
". . . . . . . . . . . . . . . . . . . . . . . . . . . . . . . . . . . . . . . . . . . . . . . . . . . . . . . . . . . . . . . . ",
". . . . . . . . . . . . . . . . . . . . . . . . . . . . . . . . . . . . . . . . . . . . . . . . . . . . . . . . . . . . . . . . ",
". . . . . . . . . . . . . . . . . . . . . . . . . . . . . . . . . . . . . . . . . . . . . . . . . . . . . . . . . . . . . . . . ",
". . . . . . . . . . . . . . . . . . . . . . . . . . . . . . . . . . . . . . . . . . . . . . . . . . . . . . . . . . . . . . . . ",
". . . . . . + @ @ @ @ # $ % & . . * @ @ @ @ @ @ @ @ @ = + @ @ @ @ @ @ @ - . . . ; > , ' ) ! ~ { ] . ^ @ @ / . . . ( @ @ ( . . . ",
". . . . . . _ @ @ : < [ @ @ } | . 1 2 2 3 @ @ 4 2 2 2 & _ @ @ : 2 2 2 2 5 . . 6 7 @ @ 4 8 @ @ @ 9 . 0 @ @ a . . . b @ @ c . . . ",
". . . . . . > @ @ d . e } @ @ f . . . . g @ @ h . . . . > @ @ i . . . . . . j @ @ k l m . n o p . . q @ @ r . . . k @ s t . . . ",
". . . . . . u @ v w . . x @ @ _ . . . . y @ @ z . . . . u @ v w . . . . . A # @ B e . . . . . C . m D @ B . . . E @ @ F . . . . ",
". . . . . t ' @ G . . . H @ @ I . . . . J @ @ K . . . t ' @ L . . . . . . % @ @ M . . . . . . . . A @ @ N . . . O @ @ P . . . . ",
". . . . . d @ @ Q . R S @ @ T . . . . . 3 @ ! . . . . d @ @ @ @ @ @ @ g . < @ [ U . V @ @ @ @ z . W @ @ X . . . Y @ @ Z . . . . ",
". . . . . ` @ @ @ @ @ @ @ q E . . . .  .@ @ ... . . . ` @ @ +.2 2 2 @.#.$.@ @ } . %.G 2 v @ @ &.. *.@ @ =.. . . -.@ @ ;.. . . . ",
". . . . . >.@ @ ,.3 @ @ '.. . . . . . ).@ @ Y . . . . >.@ @ d . . . . . !.@ @ ~.. . . {.].@ ^.. . /.@ @ R . . m 3 @ B . . . . . ",
". . . . . (.@ ].] w < @ _.&.. . . . . / @ @ ^ . . . . (.@ s t . . . . . :.v @ 7 R . . n @ @ <.. . 2 @ [ [.. . }.@ @ |.. . . . . ",
". . . . ] [ @ 1.. . 2.@ @ *.. . . . . q @ @ 3.. . . ] [ @ 4.. . . . . . . 5.@ @ 6.&.. 7.@ @ 8.. . 9.@ @ *.* 0.! @ [ a.. . . . . ",
". . . . =.@ @ b.. . w < @ # c.. . . . : @ ^.. . . . =.@ @ d.. . . . . . . a.D @ @ @ 3 e.@ @ f.. . g.@ @ @ @ @ @ @ 8.. . . . . . ",
". . . . h.@ @ 5 . . . 2.@ @ i.. . . j.@ @ <.. . . . h.@ @ k.. . . . . . . . !.|.l.) _.(.m.n.%.. . . o.p.q.].r.s.f . . . . . . . ",
". . . . . . . . . . . . . . . . . . . . . . . . . . . . . . . . . . . . . . . . . . . . . . . . . . . . . . . . . . . . . . . . ",
". . . . . . . . . . . . . . . . . . . . . . . . . . . . . . . . . . . . . . . . . . . . . . . . . . . . . . . . . . . . . . . . ",
". . . . . . . . . . . . . . . . . . . . . . . . . . . . . . . . . . . . . . . . . . . . . . . . . . . . . . . . . . . . . . . . ",
". . . . . . . . . . . . . . . . . . . . . . . . . . . . . . . . . . . . . . . . . . . . . . . . . . . . . . . . . . . . . . . . ",
". . . . . . . . . . . . . . . . . . . . . . . . . . . . . . . . . . . . . . . . . . . . . . . . . . . . . . . . . . . . . . . . ",
". . . . . . . . . . . . . . . . . . . . . . . . . . . . . . . . . . . . . . . . . . . . . . . . . . . . . . . . . . . . . . . . ",
". . . . . . . . . . . . . . . . . . . . . . . . . . . . . . . . . . . . . . . . . . . . . . . . . . . . . . . . . . . . . . . . ",
". . . . . . . . . . . . . . . . . . . . . . . . . . . . . . . . . . . . . . . . . . . . . . . . . . . . . . . . . . . . . . . . ",
". . . . . . . . . . . . . . . . . . . . . . . . . . . . . . . . . . . . . . . . . . . . . . . . . . . . . . . . . . . . . . . . ",
". . . . . . . . . . . . . . . . . . . . . . . . . . . . . . . . . . . . . . . . . . . . . . . . . . . . . . . . . . . . . . . . ",
". . . . . . . . . . . . . . . . . . . . . . . . . . . . . . . . . . . . . . . . . . . . . . . . . . . . . . . . . . . . . . . . ",
". . . . . . . . . . . . . . . . . . . . . . . . . . . . . . . . . . . . . . . . . . . . . . . . . . . . . . . . . . . . . . . . ",
". . . . . . . . . . . . . . . . . . . . . . . . . . . . . . . . . . . . . . . . . . . . . . . . . . . . . . . . . . . . . . . . ",
". . . . . . . . . . . . . . . . . . . . . . . . . . . . . . . . . . . . . . . . . . . . . . . . . . . . . . . . . . . . . . . . ",
". . . . . . . . . . . . . . . . . . . . . . . . . . . . . . . . . . . . . . . . . . . . . . . . . . . . . . . . . . . . . . . . ",
". . . . . . . . . . . . . . . . . . . . . . . . . . . . . . . . . . . . . . . . . . . . . . . . . . . . . . . . . . . . . . . . ",
". . . . . . . . . . . . . . . . . . . . . . . . . . . . . . . . . . . . . . . . . . . . . . . . . . . . . . . . . . . . . . . . ",
". . . . . . . . . . . . . . . . . . . . . . . . . . . . . . . . . . . . . . . . . . . . . . . . . . . . . . . . . . . . . . . . ",
". . . . . . . . . . . . . . . . . . . . . . . . . . . . . . . . . . . . . . . . . . . . . . . . . . . . . . . . . . . . . . . . ",
". . . . . . . . . . . . . . . . . . . . . . . . . . . . . . . . . . . . . . . . . . . . . . . . . . . . . . . . . . . . . . . . ",
". . . . . . . . . . . . . . . . . . . . . . . . . . . . . . . . . . . . . . . . . . . . . . . . . . . . . . . . . . . . . . . . ",
". . . . . . . . . . . . . . . . . . . . . . . . . . . . . . . . . . . . . . . . . . . . . . . . . . . . . . . . . . . . . . . . ",
". . . . . . . . . . . . . . . . . . . . . . . . . . . . . . . . . . . . . . . . . . . . . . . . . . . . . . . . . . . . . . . . ",
". . . . . . . . . . . . . . . . . . . . . . . . . . . . . . . . . . . . . . . . . . . . . . . . . . . . . . . . . . . . . . . . ",
". . . . . . . . . . . . . . . . . . . . . . . . . . . . . . . . . . . . . . . . . . . . . . . . . . . . . . . . . . . . . . . . ",
". . . . . . . . . . . . . . . . . . . . . . . . . . . . . . . . . . . . . . . . . . . . . . . . . . . . . . . . . . . . . . . . ",
". . . . . . . . . . . . . . . . . . . . . . . . . . . . . . . . . . . . . . . . . . . . . . . . . . . . . . . . . . . . . . . . ",
". . . . . . . . . . . . . . . . . . . . . . . . . . . . . . . . . . . . . . . . . . . . . . . . . . . . . . . . . . . . . . . . ",
". . . . . . . . . . . . . . . . . . . . . . . . . . . . . . . . . . . . . . . . . . . . . . . . . . . . . . . . . . . . . . . . ",
". . . . . . . . . . . . . . . . . . . . . . . . . . . . . . . . . . . . . . . . . . . . . . . . . . . . . . . . . . . . . . . . ",
". . . . . . . . . . . . . . . . . . . . . . . . . . . . . . . . . . . . . . . . . . . . . . . . . . . . . . . . . . . . . . . . ",
". . . . . . . . . . . . . . . . . . . . . . . . . . . . . . . . . . . . . . . . . . . . . . . . . . . . . . . . . . . . . . . . ",
". . . . . . . . . . . . . . . . . . . . . . . . . . . . . . . . . . . . . . . . . . . . . . . . . . . . . . . . . . . . . . . . ",
". . . . . . . . . . . . . . . . . . . . . . . . . . . . . . . . . . . . . . . . . . . . . . . . . . . . . . . . . . . . . . . . ",
". . . . . . . . . . . . . . . . . . . . . . . . . . . . . . . . . . . . . . . . . . . . . . . . . . . . . . . . . . . . . . . . ",
". . . . . . . . . . . . . . . . . . . . . . . . . . . . . . . . . . . . . . . . . . . . . . . . . . . . . . . . . . . . . . . . ",
". . . . . . . . . . . . . . . . . . . . . . . . . . . . . . . . . . . . . . . . . . . . . . . . . . . . . . . . . . . . . . . . ",
". . . . . . . . . . . . . . . . . . . . . . . . . . . . . . . . . . . . . . . . . . . . . . . . . . . . . . . . . . . . . . . . "};
